<svg width="283" height="35" viewBox="0 0 283 35" fill="none" xmlns="http://www.w3.org/2000/svg">
<path d="M28 28C26.0575 28 24.5 29.5575 24.5 31.5C24.5 32.4283 24.8687 33.3185 25.5251 33.9749C26.1815 34.6312 27.0717 35 28 35C28.9283 35 29.8185 34.6312 30.4749 33.9749C31.1313 33.3185 31.5 32.4283 31.5 31.5C31.5 30.5717 31.1313 29.6815 30.4749 29.0251C29.8185 28.3687 28.9283 28 28 28ZM0 0V3.5H3.5L9.8 16.7825L7.42 21.07C7.1575 21.56 7 22.1375 7 22.75C7 23.6783 7.36875 24.5685 8.02513 25.2249C8.6815 25.8813 9.57174 26.25 10.5 26.25H31.5V22.75H11.235C11.119 22.75 11.0077 22.7039 10.9256 22.6219C10.8436 22.5398 10.7975 22.4285 10.7975 22.3125C10.7975 22.225 10.815 22.155 10.85 22.1025L12.425 19.25H25.4625C26.775 19.25 27.93 18.515 28.525 17.4475L34.79 6.125C34.9125 5.845 35 5.5475 35 5.25C35 4.78587 34.8156 4.34075 34.4874 4.01256C34.1592 3.68437 33.7141 3.5 33.25 3.5H7.3675L5.7225 0H0ZM10.5 28C8.5575 28 7 29.5575 7 31.5C7 32.4283 7.36875 33.3185 8.02513 33.9749C8.6815 34.6312 9.57174 35 10.5 35C11.4283 35 12.3185 34.6312 12.9749 33.9749C13.6313 33.3185 14 32.4283 14 31.5C14 30.5717 13.6313 29.6815 12.9749 29.0251C12.3185 28.3687 11.4283 28 10.5 28Z" fill="black"/>
<path d="M46.125 26H50.7955V23.8523H50.8977C51.4432 25.1818 52.7045 26.1705 54.5455 26.1705C57.3409 26.1705 59.6932 23.9886 59.6932 19.4545C59.6932 14.7159 57.1705 12.7386 54.5795 12.7386C52.6364 12.7386 51.4091 13.8636 50.8977 15.1932H50.8295V8.54545H46.125V26ZM50.7273 19.4545C50.7273 17.5114 51.5114 16.3523 52.8068 16.3523C54.1023 16.3523 54.8523 17.5114 54.8523 19.4545C54.8523 21.3977 54.1023 22.5568 52.8068 22.5568C51.5114 22.5568 50.7273 21.3636 50.7273 19.4545ZM67.9688 26.2386C72.2301 26.2386 74.7528 23.5114 74.7528 19.4886C74.7528 15.4659 72.2301 12.7386 67.9688 12.7386C63.7074 12.7386 61.1847 15.4659 61.1847 19.4886C61.1847 23.5114 63.7074 26.2386 67.9688 26.2386ZM68.0028 22.7614C66.7415 22.7614 65.9915 21.5085 65.9915 19.4545C65.9915 17.4006 66.7415 16.1477 68.0028 16.1477C69.196 16.1477 69.946 17.4006 69.946 19.4545C69.946 21.5085 69.196 22.7614 68.0028 22.7614ZM81.3665 8.54545H76.6619V26H81.3665V8.54545ZM83.7635 26H88.468V12.9091H83.7635V26ZM86.1158 11.5455C87.3942 11.5455 88.4339 10.5824 88.4339 9.39773C88.4339 8.21307 87.3942 7.25 86.1158 7.25C84.8374 7.25 83.7976 8.21307 83.7976 9.39773C83.7976 10.5824 84.8374 11.5455 86.1158 11.5455ZM97.1719 26.2386C101.05 26.2386 103.428 24.0142 103.479 20.5455H99.1151C99.0128 21.9176 98.2713 22.6591 97.2401 22.6591C96.0043 22.6591 95.1946 21.6023 95.1946 19.4545C95.1946 17.3068 96.0043 16.25 97.2401 16.25C98.2798 16.25 98.9872 16.9915 99.1151 18.3636H103.479C103.453 14.9545 101.024 12.7386 97.1719 12.7386C92.9105 12.7386 90.3878 15.4659 90.3878 19.4886C90.3878 23.5114 92.9105 26.2386 97.1719 26.2386ZM110.124 18.6364C110.133 17.3409 110.883 16.5568 112.033 16.5568C113.235 16.5568 113.917 17.3409 113.908 18.6364V26H118.613V17.6477C118.621 14.7841 116.815 12.7386 114.045 12.7386C112.11 12.7386 110.678 13.7273 110.09 15.3977H109.954V8.54545H105.42V26H110.124V18.6364ZM127.242 26.2386C131.504 26.2386 134.026 23.5114 134.026 19.4886C134.026 15.4659 131.504 12.7386 127.242 12.7386C122.981 12.7386 120.458 15.4659 120.458 19.4886C120.458 23.5114 122.981 26.2386 127.242 26.2386ZM127.276 22.7614C126.015 22.7614 125.265 21.5085 125.265 19.4545C125.265 17.4006 126.015 16.1477 127.276 16.1477C128.469 16.1477 129.219 17.4006 129.219 19.4545C129.219 21.5085 128.469 22.7614 127.276 22.7614ZM140.435 26.3068C142.719 26.3068 143.913 25.0795 144.322 24.2273H144.424V26H146.435V17.375C146.435 13.2159 143.265 12.7386 141.594 12.7386C139.617 12.7386 137.367 13.4205 136.344 15.8068L138.254 16.4886C138.697 15.5341 139.745 14.5114 141.663 14.5114C143.512 14.5114 144.424 15.4915 144.424 17.1705V17.2386C144.424 18.2102 143.435 18.125 141.049 18.4318C138.62 18.7472 135.969 19.2841 135.969 22.2841C135.969 24.8409 137.947 26.3068 140.435 26.3068ZM140.742 24.5C139.14 24.5 137.981 23.7841 137.981 22.3864C137.981 20.8523 139.379 20.375 140.947 20.1705C141.799 20.0682 144.083 19.8295 144.424 19.4205V21.2614C144.424 22.8977 143.129 24.5 140.742 24.5ZM152.118 8.54545H150.107V26H152.118V8.54545ZM161.29 26.2727C163.95 26.2727 165.893 24.9432 166.506 22.9659L164.563 22.4205C164.052 23.7841 162.867 24.4659 161.29 24.4659C158.93 24.4659 157.302 22.9403 157.208 20.1364H166.711V19.2841C166.711 14.4091 163.813 12.7386 161.086 12.7386C157.54 12.7386 155.188 15.5341 155.188 19.5568C155.188 23.5795 157.506 26.2727 161.29 26.2727ZM157.208 18.3977C157.344 16.3608 158.785 14.5455 161.086 14.5455C163.268 14.5455 164.665 16.1818 164.665 18.3977H157.208ZM175.055 31.1818C178.191 31.1818 180.714 29.75 180.714 26.375V12.9091H178.771V14.9886H178.566C178.123 14.3068 177.305 12.7386 174.748 12.7386C171.441 12.7386 169.157 15.3636 169.157 19.3864C169.157 23.4773 171.543 25.7955 174.714 25.7955C177.271 25.7955 178.089 24.2955 178.532 23.5795H178.702V26.2386C178.702 28.4205 177.168 29.4091 175.055 29.4091C172.677 29.4091 171.842 28.1562 171.305 27.4318L169.702 28.5568C170.521 29.929 172.131 31.1818 175.055 31.1818ZM174.987 23.9886C172.464 23.9886 171.168 22.0795 171.168 19.3523C171.168 16.6932 172.43 14.5455 174.987 14.5455C177.441 14.5455 178.737 16.5227 178.737 19.3523C178.737 22.25 177.407 23.9886 174.987 23.9886ZM184.396 26H186.407V17.7159C186.407 15.9432 187.805 14.6477 189.714 14.6477C190.251 14.6477 190.805 14.75 190.941 14.7841V12.7386C190.711 12.7216 190.183 12.7045 189.884 12.7045C188.316 12.7045 186.952 13.5909 186.475 14.8864H186.339V12.9091H184.396V26ZM198.415 26.2727C201.075 26.2727 203.018 24.9432 203.631 22.9659L201.688 22.4205C201.177 23.7841 199.992 24.4659 198.415 24.4659C196.055 24.4659 194.427 22.9403 194.333 20.1364H203.836V19.2841C203.836 14.4091 200.938 12.7386 198.211 12.7386C194.665 12.7386 192.313 15.5341 192.313 19.5568C192.313 23.5795 194.631 26.2727 198.415 26.2727ZM194.333 18.3977C194.469 16.3608 195.91 14.5455 198.211 14.5455C200.393 14.5455 201.79 16.1818 201.79 18.3977H194.333ZM212.589 12.9091H209.793V9.77273H207.782V12.9091H205.805V14.6136H207.782V22.7955C207.782 25.0795 209.623 26.1705 211.327 26.1705C212.077 26.1705 212.555 26.0341 212.827 25.9318L212.418 24.125C212.248 24.1591 211.975 24.2273 211.532 24.2273C210.646 24.2273 209.793 23.9545 209.793 22.25V14.6136H212.589V12.9091ZM220.962 26.2727C223.621 26.2727 225.565 24.9432 226.178 22.9659L224.235 22.4205C223.724 23.7841 222.539 24.4659 220.962 24.4659C218.602 24.4659 216.974 22.9403 216.88 20.1364H226.383V19.2841C226.383 14.4091 223.485 12.7386 220.758 12.7386C217.212 12.7386 214.86 15.5341 214.86 19.5568C214.86 23.5795 217.178 26.2727 220.962 26.2727ZM216.88 18.3977C217.016 16.3608 218.457 14.5455 220.758 14.5455C222.94 14.5455 224.337 16.1818 224.337 18.3977H216.88ZM230.908 26.1364C231.752 26.1364 232.442 25.446 232.442 24.6023C232.442 23.7585 231.752 23.0682 230.908 23.0682C230.065 23.0682 229.374 23.7585 229.374 24.6023C229.374 25.446 230.065 26.1364 230.908 26.1364ZM241.37 26.2727C244.268 26.2727 246.177 24.5 246.518 22.1818H244.506C244.131 23.6136 242.938 24.4659 241.37 24.4659C238.984 24.4659 237.45 22.4886 237.45 19.4545C237.45 16.4886 239.018 14.5455 241.37 14.5455C243.143 14.5455 244.2 15.6364 244.506 16.8295H246.518C246.177 14.375 244.097 12.7386 241.336 12.7386C237.79 12.7386 235.438 15.5341 235.438 19.5227C235.438 23.4432 237.688 26.2727 241.37 26.2727ZM254.776 26.2727C258.322 26.2727 260.708 23.5795 260.708 19.5227C260.708 15.4318 258.322 12.7386 254.776 12.7386C251.231 12.7386 248.844 15.4318 248.844 19.5227C248.844 23.5795 251.231 26.2727 254.776 26.2727ZM254.776 24.4659C252.083 24.4659 250.856 22.1477 250.856 19.5227C250.856 16.8977 252.083 14.5455 254.776 14.5455C257.469 14.5455 258.697 16.8977 258.697 19.5227C258.697 22.1477 257.469 24.4659 254.776 24.4659ZM263.778 26H265.79V17.8182C265.79 15.9006 267.188 14.5455 268.756 14.5455C270.281 14.5455 271.347 15.5426 271.347 17.0341V26H273.392V17.4773C273.392 15.7898 274.449 14.5455 276.29 14.5455C277.722 14.5455 278.949 15.304 278.949 17.2386V26H280.96V17.2386C280.96 14.1619 279.307 12.7386 276.972 12.7386C275.097 12.7386 273.724 13.5994 273.051 14.9545H272.915C272.267 13.5568 271.125 12.7386 269.403 12.7386C267.699 12.7386 266.438 13.5568 265.892 14.9545H265.722V12.9091H263.778V26Z" fill="black"/>
</svg>
