<svg width="88" height="82" viewBox="0 0 88 82" fill="none" xmlns="http://www.w3.org/2000/svg">
<path d="M49.4375 81.75L44 78.625L56.5 56.75H75.25C76.9076 56.75 78.4973 56.0915 79.6694 54.9194C80.8415 53.7473 81.5 52.1576 81.5 50.5V13C81.5 11.3424 80.8415 9.75268 79.6694 8.58058C78.4973 7.40848 76.9076 6.75 75.25 6.75H12.75C11.0924 6.75 9.50268 7.40848 8.33058 8.58058C7.15848 9.75268 6.5 11.3424 6.5 13V50.5C6.5 52.1576 7.15848 53.7473 8.33058 54.9194C9.50268 56.0915 11.0924 56.75 12.75 56.75H40.875V63H12.75C9.43479 63 6.25537 61.683 3.91117 59.3388C1.56696 56.9946 0.25 53.8152 0.25 50.5V13C0.25 9.68479 1.56696 6.50537 3.91117 4.16116C6.25537 1.81696 9.43479 0.5 12.75 0.5H75.25C78.5652 0.5 81.7446 1.81696 84.0888 4.16116C86.433 6.50537 87.75 9.68479 87.75 13V50.5C87.75 53.8152 86.433 56.9946 84.0888 59.3388C81.7446 61.683 78.5652 63 75.25 63H60.125L49.4375 81.75Z" fill="black"/>
</svg>
