<svg width="88" height="64" viewBox="0 0 88 64" fill="none" xmlns="http://www.w3.org/2000/svg">
<path d="M81.5 0.75H6.5C4.8424 0.75 3.25268 1.40848 2.08058 2.58058C0.90848 3.75268 0.25 5.3424 0.25 7V57C0.25 58.6576 0.90848 60.2473 2.08058 61.4194C3.25268 62.5915 4.8424 63.25 6.5 63.25H81.5C83.1576 63.25 84.7473 62.5915 85.9194 61.4194C87.0915 60.2473 87.75 58.6576 87.75 57V7C87.75 5.3424 87.0915 3.75268 85.9194 2.58058C84.7473 1.40848 83.1576 0.75 81.5 0.75ZM74.625 7L44 28.1875L13.375 7H74.625ZM6.5 57V9.84375L42.2188 34.5625C42.7419 34.9254 43.3633 35.1199 44 35.1199C44.6367 35.1199 45.2581 34.9254 45.7812 34.5625L81.5 9.84375V57H6.5Z" fill="black"/>
</svg>
